<svg xmlns="http://www.w3.org/2000/svg" xmlns:xlink="http://www.w3.org/1999/xlink"><symbol id="arrow" viewBox="0 0 30 11">
  <path d="M0 5.5H29M29 5.5L23.5135 1M29 5.5L23.5135 10"/>
</symbol><symbol id="burger" viewBox="0 0 25 18">
<path d="M0 1H25M0 9H25M0 17H25" stroke-width="2"/>
</symbol><symbol id="close" viewBox="0 0 14 14">
<path d="M7 5.44469L12.4447 0L14 1.55531L8.55531 7L14 12.4447L12.4447 14L7 8.55531L1.55531 14L0 12.4447L5.44469 7L0 1.55531L1.55531 0L7 5.44469Z"/>
</symbol><symbol id="facebook" viewBox="0 0 18 18">
<path d="M9.33333 10.125H11.2381L12 7.125H9.33333V5.625C9.33333 4.8525 9.33333 4.125 10.8571 4.125H12V1.605C11.7516 1.57275 10.8137 1.5 9.82324 1.5C7.75467 1.5 6.28571 2.74275 6.28571 5.025V7.125H4V10.125H6.28571V16.5H9.33333V10.125Z"/>
</symbol><symbol id="inst" viewBox="0 0 18 18">
<path d="M9 1.5C11.0378 1.5 11.292 1.5075 12.0915 1.545C12.8902 1.5825 13.434 1.70775 13.9125 1.89375C14.4075 2.08425 14.8245 2.34225 15.2415 2.7585C15.6229 3.13342 15.918 3.58694 16.1063 4.0875C16.2915 4.56525 16.4175 5.10975 16.455 5.9085C16.4903 6.708 16.5 6.96225 16.5 9C16.5 11.0378 16.4925 11.292 16.455 12.0915C16.4175 12.8902 16.2915 13.434 16.1063 13.9125C15.9185 14.4133 15.6233 14.867 15.2415 15.2415C14.8665 15.6227 14.413 15.9178 13.9125 16.1063C13.4347 16.2915 12.8902 16.4175 12.0915 16.455C11.292 16.4903 11.0378 16.5 9 16.5C6.96225 16.5 6.708 16.4925 5.9085 16.455C5.10975 16.4175 4.566 16.2915 4.0875 16.1063C3.58674 15.9184 3.13315 15.6232 2.7585 15.2415C2.37705 14.8666 2.08195 14.4131 1.89375 13.9125C1.70775 13.4347 1.5825 12.8902 1.545 12.0915C1.50975 11.292 1.5 11.0378 1.5 9C1.5 6.96225 1.5075 6.708 1.545 5.9085C1.5825 5.109 1.70775 4.566 1.89375 4.0875C2.08143 3.58663 2.3766 3.13299 2.7585 2.7585C3.13325 2.37692 3.58682 2.0818 4.0875 1.89375C4.566 1.70775 5.109 1.5825 5.9085 1.545C6.708 1.50975 6.96225 1.5 9 1.5ZM9 5.25C8.00544 5.25 7.05161 5.64509 6.34835 6.34835C5.64509 7.05161 5.25 8.00544 5.25 9C5.25 9.99456 5.64509 10.9484 6.34835 11.6517C7.05161 12.3549 8.00544 12.75 9 12.75C9.99456 12.75 10.9484 12.3549 11.6517 11.6517C12.3549 10.9484 12.75 9.99456 12.75 9C12.75 8.00544 12.3549 7.05161 11.6517 6.34835C10.9484 5.64509 9.99456 5.25 9 5.25V5.25ZM13.875 5.0625C13.875 4.81386 13.7762 4.5754 13.6004 4.39959C13.4246 4.22377 13.1861 4.125 12.9375 4.125C12.6889 4.125 12.4504 4.22377 12.2746 4.39959C12.0988 4.5754 12 4.81386 12 5.0625C12 5.31114 12.0988 5.5496 12.2746 5.72541C12.4504 5.90123 12.6889 6 12.9375 6C13.1861 6 13.4246 5.90123 13.6004 5.72541C13.7762 5.5496 13.875 5.31114 13.875 5.0625ZM9 6.75C9.59674 6.75 10.169 6.98705 10.591 7.40901C11.0129 7.83097 11.25 8.40326 11.25 9C11.25 9.59674 11.0129 10.169 10.591 10.591C10.169 11.0129 9.59674 11.25 9 11.25C8.40326 11.25 7.83097 11.0129 7.40901 10.591C6.98705 10.169 6.75 9.59674 6.75 9C6.75 8.40326 6.98705 7.83097 7.40901 7.40901C7.83097 6.98705 8.40326 6.75 9 6.75V6.75Z"/>
</symbol><symbol id="logo" viewBox="0 0 66 66">
<path fill-rule="evenodd" clip-rule="evenodd" d="M10.1262 10.1191L33 0.644445L55.8738 10.1191L65.3514 33L55.8738 55.8809L33 65.3556L10.1262 55.8809L0.648582 33L10.1262 10.1191ZM33 0L56.3345 9.66548L66 33L56.3345 56.3345L33 66L9.66548 56.3345L0 33L9.66548 9.66548L33 0ZM28.5672 26.4166C27.948 26.2882 27.1848 26.224 26.2776 26.224C24.7944 26.224 23.4552 26.5094 22.26 27.0802C21.0792 27.651 20.1504 28.4573 19.4736 29.499C18.7968 30.5265 18.4584 31.7109 18.4584 33.0523C18.4584 34.4365 18.7896 35.6638 19.452 36.7341C20.1144 37.8043 21.036 38.6391 22.2168 39.2385C23.412 39.8236 24.7656 40.1161 26.2776 40.1161C27.1272 40.1161 27.876 40.0448 28.524 39.9021C29.1864 39.7593 29.892 39.5096 30.6408 39.1529C30.7272 39.0958 30.7848 39.0458 30.8136 39.003C30.8424 38.9602 30.864 38.8532 30.8784 38.6819L31.0944 36.3274C31.0944 36.2845 31.044 36.2631 30.9432 36.2631C30.8712 36.2631 30.8352 36.2774 30.8352 36.3059C30.4464 37.4761 29.8848 38.3466 29.1504 38.9174C28.416 39.4882 27.4584 39.7736 26.2776 39.7736C25.1688 39.7736 24.1392 39.4739 23.1888 38.8746C22.2528 38.2752 21.504 37.4618 20.9424 36.4344C20.3952 35.3926 20.1216 34.251 20.1216 33.0095C20.1216 31.7109 20.3736 30.5764 20.8776 29.6061C21.3816 28.6214 22.0944 27.8651 23.016 27.3371C23.9376 26.8091 25.0032 26.5451 26.2128 26.5451C28.5168 26.5451 30 27.7366 30.6624 30.1198C30.6768 30.1626 30.72 30.184 30.792 30.184C30.8784 30.1697 30.9216 30.1412 30.9216 30.0984L30.6624 27.5511C30.6336 27.3799 30.612 27.2729 30.5976 27.2301C30.5832 27.1872 30.5256 27.1373 30.4248 27.0802C29.8056 26.7663 29.1864 26.5451 28.5672 26.4166ZM47.8678 39.7094C47.8678 39.6238 47.8462 39.581 47.803 39.581C47.2558 39.581 46.8526 39.5453 46.5934 39.4739C46.3342 39.4026 46.1542 39.267 46.0534 39.0672C45.967 38.8532 45.9238 38.5321 45.9238 38.104V28.1933C45.9238 27.7652 45.967 27.4512 46.0534 27.2515C46.1542 27.0517 46.3342 26.9161 46.5934 26.8448C46.8526 26.7591 47.2558 26.7163 47.803 26.7163C47.8462 26.7163 47.8678 26.6735 47.8678 26.5879C47.8678 26.5023 47.8462 26.4595 47.803 26.4595L46.7446 26.4809C46.1398 26.5094 45.643 26.5237 45.2542 26.5237C44.8222 26.5237 44.2894 26.5094 43.6558 26.4809L42.6406 26.4595C42.5974 26.4595 42.5758 26.5023 42.5758 26.5879C42.5758 26.6735 42.5974 26.7163 42.6406 26.7163C43.2022 26.7163 43.6126 26.7591 43.8718 26.8448C44.131 26.9304 44.3038 27.0802 44.3902 27.2943C44.491 27.4941 44.5414 27.808 44.5414 28.2361V32.6456H36.247V28.2361C36.247 27.808 36.2902 27.4941 36.3766 27.2943C36.4774 27.0802 36.6574 26.9304 36.9166 26.8448C37.1902 26.7591 37.6006 26.7163 38.1478 26.7163C38.1766 26.7163 38.191 26.6735 38.191 26.5879C38.191 26.5023 38.1766 26.4595 38.1478 26.4595L37.111 26.4809C36.4774 26.5094 35.9518 26.5237 35.5342 26.5237C35.1742 26.5237 34.6918 26.5094 34.087 26.4809L32.9854 26.4595C32.9566 26.4595 32.9422 26.5023 32.9422 26.5879C32.9422 26.6735 32.9566 26.7163 32.9854 26.7163C33.5326 26.7163 33.9358 26.7591 34.195 26.8448C34.4542 26.9161 34.627 27.0517 34.7134 27.2515C34.8142 27.4512 34.8646 27.7652 34.8646 28.1933V38.104C34.8646 38.5321 34.8142 38.8532 34.7134 39.0672C34.627 39.267 34.447 39.4026 34.1734 39.4739C33.9142 39.5453 33.511 39.581 32.9638 39.581C32.935 39.581 32.9206 39.6238 32.9206 39.7094C32.9206 39.795 32.935 39.8378 32.9638 39.8378C33.4246 39.8378 33.7846 39.8307 34.0438 39.8164L35.5342 39.795L37.0894 39.8164C37.3486 39.8307 37.7014 39.8378 38.1478 39.8378C38.1766 39.8378 38.191 39.795 38.191 39.7094C38.191 39.6238 38.1766 39.581 38.1478 39.581C37.5862 39.581 37.1758 39.5453 36.9166 39.4739C36.6574 39.4026 36.4774 39.267 36.3766 39.0672C36.2902 38.8532 36.247 38.5321 36.247 38.104V33.0951H44.5414V38.104C44.5414 38.5321 44.491 38.8532 44.3902 39.0672C44.3038 39.267 44.131 39.4026 43.8718 39.4739C43.6126 39.5453 43.2022 39.581 42.6406 39.581C42.5974 39.581 42.5758 39.6238 42.5758 39.7094C42.5758 39.795 42.5974 39.8378 42.6406 39.8378C43.0726 39.8378 43.411 39.8307 43.6558 39.8164L45.2542 39.795L46.7446 39.8164C47.0038 39.8307 47.3566 39.8378 47.803 39.8378C47.8462 39.8378 47.8678 39.795 47.8678 39.7094Z"/>
</symbol><symbol id="open_arrow" viewBox="0 0 17 10">
<path d="M1 1L8.5 9L16 1"/>
</symbol><symbol id="pinterest" viewBox="0 0 18 18">
<path d="M10.0246 1.57001C8.23009 1.32315 6.40683 1.73392 4.89151 2.72648C3.3762 3.71903 2.27118 5.22633 1.78049 6.97006C1.28981 8.71378 1.4466 10.5762 2.22191 12.2133C2.99723 13.8504 4.33871 15.1518 5.99864 15.877C5.95375 15.3009 5.99496 14.7213 6.12089 14.1573C6.25964 13.528 7.09289 10.06 7.09289 10.06C6.92697 9.68808 6.84405 9.28448 6.84989 8.87726C6.84989 7.76351 7.49264 6.93251 8.29214 6.93251C8.43577 6.93042 8.57817 6.95928 8.70965 7.01713C8.84113 7.07498 8.95861 7.16047 9.0541 7.26778C9.1496 7.37508 9.22087 7.50169 9.26306 7.639C9.30526 7.77631 9.31739 7.92109 9.29864 8.06351C9.29864 8.73851 8.86514 9.76001 8.63864 10.7185C8.59388 10.8943 8.59104 11.0781 8.63035 11.2552C8.66966 11.4323 8.75002 11.5977 8.86496 11.738C8.9799 11.8783 9.1262 11.9897 9.29207 12.0631C9.45793 12.1366 9.63873 12.17 9.81989 12.1608C11.2434 12.1608 12.1974 10.3375 12.1974 8.18501C12.1974 6.53501 11.1046 5.29901 9.09014 5.29901C8.60817 5.28028 8.12743 5.3597 7.67709 5.53245C7.22676 5.7052 6.81623 5.96767 6.47043 6.30392C6.12463 6.64018 5.85078 7.04321 5.66551 7.48854C5.48023 7.93387 5.3874 8.4122 5.39264 8.89451C5.37117 9.4295 5.54377 9.95423 5.87864 10.372C5.94122 10.4187 5.98691 10.4845 6.00882 10.5595C6.03074 10.6344 6.02769 10.7144 6.00014 10.7875C5.96564 10.9255 5.87864 11.2548 5.84414 11.3755C5.83697 11.4165 5.82027 11.4551 5.79541 11.4885C5.77054 11.5218 5.7382 11.5488 5.70099 11.5673C5.66378 11.5859 5.62273 11.5954 5.58116 11.5952C5.53959 11.5949 5.49865 11.585 5.46164 11.566C4.42364 11.1505 3.93464 10.0083 3.93464 8.70401C3.93464 6.56876 5.72264 4.01276 9.30014 4.01276C12.1471 4.01276 14.0401 6.09551 14.0401 8.32301C14.0401 11.2548 12.4074 13.459 9.99464 13.459C9.63403 13.4705 9.27634 13.391 8.95464 13.2276C8.63294 13.0643 8.35762 12.8224 8.15414 12.5245C8.15414 12.5245 7.72064 14.2615 7.63514 14.59C7.46061 15.1575 7.20307 15.6961 6.87089 16.1883C7.56314 16.3983 8.28239 16.5033 9.00539 16.5003C9.99058 16.501 10.9662 16.3075 11.8765 15.9307C12.7868 15.5539 13.6138 15.0012 14.3102 14.3043C15.0066 13.6075 15.5587 12.7801 15.9348 11.8695C16.311 10.959 16.5039 9.98319 16.5024 8.99801C16.5015 7.18676 15.8452 5.437 14.6549 4.07184C13.4645 2.70668 11.8204 1.81831 10.0261 1.57076L10.0246 1.57001Z"/>
</symbol><symbol id="search" viewBox="0 0 14 14">
<path d="M11.0482 10.0737L14 13.0248L13.0248 14L10.0737 11.0482C8.9757 11.9285 7.60993 12.4072 6.20262 12.4052C2.77877 12.4052 0 9.62646 0 6.20262C0 2.77877 2.77877 0 6.20262 0C9.62646 0 12.4052 2.77877 12.4052 6.20262C12.4072 7.60993 11.9285 8.9757 11.0482 10.0737ZM9.66575 9.56237C10.5404 8.66291 11.0289 7.45722 11.0269 6.20262C11.0269 3.53687 8.86768 1.37836 6.20262 1.37836C3.53687 1.37836 1.37836 3.53687 1.37836 6.20262C1.37836 8.86768 3.53687 11.0269 6.20262 11.0269C7.45722 11.0289 8.66291 10.5404 9.56237 9.66575L9.66575 9.56237Z"/>
</symbol><symbol id="shopping_cart" viewBox="0 0 20 18">
<path d="M14 5C14 6.06087 13.5786 7.07828 12.8284 7.82843C12.0783 8.57857 11.0609 9 10 9C8.93913 9 7.92172 8.57857 7.17157 7.82843C6.42143 7.07828 6 6.06087 6 5M1 1H19V17H1V1Z" stroke-width="2" stroke-linecap="round" stroke-linejoin="round"/>
</symbol><symbol id="twitter" viewBox="0 0 18 18">
<path d="M16.4993 4.04324C15.9375 4.30812 15.3417 4.48209 14.7317 4.55937C15.3747 4.14947 15.8559 3.50438 16.0857 2.7443C15.4823 3.12708 14.8207 3.39534 14.1312 3.54045C13.6681 3.01223 13.0542 2.66191 12.385 2.54395C11.7158 2.426 11.0288 2.54702 10.4307 2.8882C9.83271 3.22937 9.35718 3.7716 9.07809 4.43057C8.79899 5.08954 8.73196 5.82833 8.88741 6.5321C7.66374 6.46673 6.46664 6.12777 5.37384 5.53724C4.28104 4.9467 3.31696 4.1178 2.5442 3.10433C2.27067 3.60512 2.12693 4.17441 2.1277 4.7539C2.1277 5.89126 2.67077 6.89606 3.49642 7.48435C3.00781 7.46795 2.52995 7.3273 2.10268 7.07411V7.1149C2.10283 7.87238 2.34873 8.6065 2.7987 9.19279C3.24867 9.77907 3.87501 10.1814 4.57153 10.3317C4.11795 10.4627 3.64235 10.482 3.18073 10.3881C3.37711 11.0402 3.75987 11.6104 4.27541 12.019C4.79095 12.4276 5.41346 12.6541 6.05578 12.6668C5.4174 13.2012 4.68645 13.5963 3.90474 13.8294C3.12303 14.0625 2.30587 14.1291 1.5 14.0253C2.90676 14.9897 4.54437 15.5017 6.21693 15.5C11.878 15.5 14.9738 10.5011 14.9738 6.16579C14.9738 6.0246 14.9701 5.88184 14.9642 5.74222C15.5668 5.278 16.0869 4.70293 16.5 4.04403L16.4993 4.04324Z"/>
</symbol></svg>