<svg width="18" height="18" viewBox="0 0 18 18" fill="none" xmlns="http://www.w3.org/2000/svg">
<path d="M10.0246 1.57001C8.23009 1.32315 6.40683 1.73392 4.89151 2.72648C3.3762 3.71903 2.27118 5.22633 1.78049 6.97006C1.28981 8.71378 1.4466 10.5762 2.22191 12.2133C2.99723 13.8504 4.33871 15.1518 5.99864 15.877C5.95375 15.3009 5.99496 14.7213 6.12089 14.1573C6.25964 13.528 7.09289 10.06 7.09289 10.06C6.92697 9.68808 6.84405 9.28448 6.84989 8.87726C6.84989 7.76351 7.49264 6.93251 8.29214 6.93251C8.43577 6.93042 8.57817 6.95928 8.70965 7.01713C8.84113 7.07498 8.95861 7.16047 9.0541 7.26778C9.1496 7.37508 9.22087 7.50169 9.26306 7.639C9.30526 7.77631 9.31739 7.92109 9.29864 8.06351C9.29864 8.73851 8.86514 9.76001 8.63864 10.7185C8.59388 10.8943 8.59104 11.0781 8.63035 11.2552C8.66966 11.4323 8.75002 11.5977 8.86496 11.738C8.9799 11.8783 9.1262 11.9897 9.29207 12.0631C9.45793 12.1366 9.63873 12.17 9.81989 12.1608C11.2434 12.1608 12.1974 10.3375 12.1974 8.18501C12.1974 6.53501 11.1046 5.29901 9.09014 5.29901C8.60817 5.28028 8.12743 5.3597 7.67709 5.53245C7.22676 5.7052 6.81623 5.96767 6.47043 6.30392C6.12463 6.64018 5.85078 7.04321 5.66551 7.48854C5.48023 7.93387 5.3874 8.4122 5.39264 8.89451C5.37117 9.4295 5.54377 9.95423 5.87864 10.372C5.94122 10.4187 5.98691 10.4845 6.00882 10.5595C6.03074 10.6344 6.02769 10.7144 6.00014 10.7875C5.96564 10.9255 5.87864 11.2548 5.84414 11.3755C5.83697 11.4165 5.82027 11.4551 5.79541 11.4885C5.77054 11.5218 5.7382 11.5488 5.70099 11.5673C5.66378 11.5859 5.62273 11.5954 5.58116 11.5952C5.53959 11.5949 5.49865 11.585 5.46164 11.566C4.42364 11.1505 3.93464 10.0083 3.93464 8.70401C3.93464 6.56876 5.72264 4.01276 9.30014 4.01276C12.1471 4.01276 14.0401 6.09551 14.0401 8.32301C14.0401 11.2548 12.4074 13.459 9.99464 13.459C9.63403 13.4705 9.27634 13.391 8.95464 13.2276C8.63294 13.0643 8.35762 12.8224 8.15414 12.5245C8.15414 12.5245 7.72064 14.2615 7.63514 14.59C7.46061 15.1575 7.20307 15.6961 6.87089 16.1883C7.56314 16.3983 8.28239 16.5033 9.00539 16.5003C9.99058 16.501 10.9662 16.3075 11.8765 15.9307C12.7868 15.5539 13.6138 15.0012 14.3102 14.3043C15.0066 13.6075 15.5587 12.7801 15.9348 11.8695C16.311 10.959 16.5039 9.98319 16.5024 8.99801C16.5015 7.18676 15.8452 5.437 14.6549 4.07184C13.4645 2.70668 11.8204 1.81831 10.0261 1.57076L10.0246 1.57001Z" fill="white"/>
</svg>
