<svg width="18" height="18" viewBox="0 0 18 18" fill="currentColor" xmlns="http://www.w3.org/2000/svg">
<path d="M16.4993 4.04324C15.9375 4.30812 15.3417 4.48209 14.7317 4.55937C15.3747 4.14947 15.8559 3.50438 16.0857 2.7443C15.4823 3.12708 14.8207 3.39534 14.1312 3.54045C13.6681 3.01223 13.0542 2.66191 12.385 2.54395C11.7158 2.426 11.0288 2.54702 10.4307 2.8882C9.83271 3.22937 9.35718 3.7716 9.07809 4.43057C8.79899 5.08954 8.73196 5.82833 8.88741 6.5321C7.66374 6.46673 6.46664 6.12777 5.37384 5.53724C4.28104 4.9467 3.31696 4.1178 2.5442 3.10433C2.27067 3.60512 2.12693 4.17441 2.1277 4.7539C2.1277 5.89126 2.67077 6.89606 3.49642 7.48435C3.00781 7.46795 2.52995 7.3273 2.10268 7.07411V7.1149C2.10283 7.87238 2.34873 8.6065 2.7987 9.19279C3.24867 9.77907 3.87501 10.1814 4.57153 10.3317C4.11795 10.4627 3.64235 10.482 3.18073 10.3881C3.37711 11.0402 3.75987 11.6104 4.27541 12.019C4.79095 12.4276 5.41346 12.6541 6.05578 12.6668C5.4174 13.2012 4.68645 13.5963 3.90474 13.8294C3.12303 14.0625 2.30587 14.1291 1.5 14.0253C2.90676 14.9897 4.54437 15.5017 6.21693 15.5C11.878 15.5 14.9738 10.5011 14.9738 6.16579C14.9738 6.0246 14.9701 5.88184 14.9642 5.74222C15.5668 5.278 16.0869 4.70293 16.5 4.04403L16.4993 4.04324Z"/>
</svg>
